:SAMPLES-PER-SECOND 30
:FRAME-RANGE 1-744
:FULLY-SPECIFIED
:DEGREES
675
root  -66.3739 39.4211 -29.0219 -154.214 70.629 -158.443
RightUpLeg  -13.7962 12.3305 0.139564
RightLeg  17.4677 13.3904 4.48302
RightFoot  -14.5989 0.300764 14.0131
RightToes  -5.28216e-011 1.2921e-014 -6.02303e-014
Spine  -1.54415 -1.8128 -2.46755
Spine1  7.8004 -1.1031 -2.86705
HEad  -7.27398 -26.0159 13.7472
LeftShoulder1  1.43287 -2.97837 -16.3182
LeftArm  -3.51582 -16.1738 -42.9942
LeftForeArm  31.7048 -4.18494 -11.4649
LeftHand  -0.0601933 4.39397 4.73738
RightShoulder  2.30382 3.89814 25.9947
RightArm  -12.4939 18.5555 65.0602
RightForeArm  71.995 -5.76721 8.23693
RightHand  0.2293 -6.99547 -17.6606
LeftUpLeg  -20.0543 -2.16008 9.07076
LeftLeg  20.9959 4.9987 2.51857
LeftFoot  -5.55724 0.227796 -3.84853
LeftToes  -9.4837e-011 -7.11147e-011 -1.07582e-011
676
root  -66.1927 39.3972 -29.1362 -153.539 71.3824 -157.639
RightUpLeg  -14.4942 13.4898 0.641918
RightLeg  17.9594 13.1144 4.51315
RightFoot  -14.5257 0.300021 14.2888
RightToes  -5.28216e-011 1.2921e-014 -6.02303e-014
Spine  -1.34647 -1.9181 -2.74123
Spine1  7.8352 -1.24156 -2.72463
HEad  -6.59525 -25.774 13.3918
LeftShoulder1  1.47362 -3.19079 -16.1899
LeftArm  -3.58729 -16.4525 -42.6975
LeftForeArm  31.6382 -3.93599 -11.5112
LeftHand  -0.0574298 4.44574 4.63209
RightShoulder  2.2768 3.80626 26.0276
RightArm  -13.1177 18.2663 64.4822
RightForeArm  71.9038 -5.95757 7.96822
RightHand  0.210074 -6.90334 -17.2941
LeftUpLeg  -19.6901 -1.41403 8.88933
LeftLeg  21.5754 5.18225 2.62526
LeftFoot  -6.14032 0.184622 -3.25318
LeftToes  -9.4837e-011 -7.11147e-011 -1.07582e-011
677
root  -66.0062 39.3875 -29.254 -153.533 72.2075 -157.555
RightUpLeg  -15.0675 14.1385 0.585949
RightLeg  18.7607 11.9316 4.28152
RightFoot  -14.3128 0.262283 13.813
RightToes  -5.28216e-011 1.2921e-014 -6.02303e-014
Spine  -1.33603 -2.03095 -2.95142
Spine1  7.90264 -1.36456 -2.69434
HEad  -6.06834 -25.4255 12.9806
LeftShoulder1  1.48119 -3.18646 -16.3335
LeftArm  -3.48106 -16.4859 -42.7293
LeftForeArm  31.4476 -3.30371 -11.6615
LeftHand  -0.052605 4.59704 4.69091
RightShoulder  2.24778 3.72104 25.9998
RightArm  -13.3683 17.7417 63.7586
RightForeArm  72.3182 -5.94145 7.97104
RightHand  0.203806 -6.87085 -17.1906
LeftUpLeg  -19.1445 -0.962771 8.46412
LeftLeg  21.7753 5.4572 2.77046
LeftFoot  -6.64077 0.169647 -3.16205
LeftToes  -9.4837e-011 -7.11147e-011 -1.07582e-011
678
root  -65.8195 39.3944 -29.3546 -154.081 72.8956 -158.056
RightUpLeg  -15.3855 13.9371 0.208323
RightLeg  19.4201 10.0118 3.69885
RightFoot  -13.9245 0.199364 13.0003
RightToes  -5.28216e-011 1.2921e-014 -6.02303e-014
Spine  -1.40085 -2.19329 -3.09422
Spine1  7.97321 -1.55164 -2.64112
HEad  -5.73955 -24.9688 12.5832
LeftShoulder1  1.52236 -3.26399 -16.7231
LeftArm  -3.32462 -16.179 -42.8943
LeftForeArm  31.0613 -2.24635 -11.8542
LeftHand  -0.0530498 4.63041 4.98311
RightShoulder  2.19824 3.52825 26.1813
RightArm  -13.4785 16.9196 62.7383
RightForeArm  72.6684 -5.94734 8.09582
RightHand  0.231447 -7.06445 -17.144
LeftUpLeg  -18.4868 -0.647229 7.92324
LeftLeg  21.6306 5.70742 2.89202
LeftFoot  -6.95592 0.160768 -3.1083
LeftToes  -9.4837e-011 -7.11147e-011 -1.07582e-011
679
root  -65.614 39.429 -29.4408 -154.691 73.7313 -158.565
RightUpLeg  -15.3496 12.9274 -0.43634
RightLeg  19.7585 8.37348 3.1216
RightFoot  -13.5803 0.144034 12.0641
RightToes  -5.28216e-011 1.2921e-014 -6.02303e-014
Spine  -1.52037 -2.29543 -3.1119
Spine1  8.06093 -1.67689 -2.61403
HEad  -5.5173 -24.187 12.0988
LeftShoulder1  1.53876 -3.21672 -17.179
LeftArm  -3.03304 -15.5336 -43.4423
LeftForeArm  30.9762 -0.903422 -12.048
LeftHand  -0.0482309 4.68514 4.4491
RightShoulder  2.15287 3.33676 26.432
RightArm  -13.8657 15.864 61.5469
RightForeArm  72.7655 -5.94664 8.11593
RightHand  0.223467 -7.02676 -16.9861
LeftUpLeg  -17.54 -0.218223 7.34932
LeftLeg  21.1238 5.96808 3.01709
LeftFoot  -7.15376 0.158503 -3.16095
LeftToes  -9.4837e-011 -7.11147e-011 -1.07582e-011
680
root  -65.3855 39.4637 -29.4884 -154.929 74.8633 -158.77
RightUpLeg  -15.1978 11.4963 -1.35525
RightLeg  19.6749 7.38406 2.71863
RightFoot  -13.2953 0.107052 11.5516
RightToes  -5.28216e-011 1.2921e-014 -6.02303e-014
Spine  -1.86592 -2.27716 -3.06857
Spine1  8.19099 -1.65281 -2.66536
HEad  -5.16644 -23.5104 11.8955
LeftShoulder1  1.52945 -3.0819 -17.5609
LeftArm  -2.82301 -14.4486 -44.461
LeftForeArm  31.0798 0.736833 -12.1513
LeftHand  -0.0413328 4.89349 4.47427
RightShoulder  2.11922 3.19065 26.6486
RightArm  -14.8629 14.4545 60.3901
RightForeArm  72.9003 -5.89505 7.82742
RightHand  0.237459 -7.11903 -17.0244
LeftUpLeg  -16.5596 0.513535 6.79392
LeftLeg  20.5443 6.24968 3.18166
LeftFoot  -7.34414 0.157641 -3.25428
LeftToes  -9.4837e-011 -7.11147e-011 -1.07582e-011
681
root  -65.1582 39.5053 -29.5044 -154.984 75.8842 -158.84
RightUpLeg  -14.9354 9.42714 -2.47135
RightLeg  19.0679 7.12517 2.53096
RightFoot  -12.7238 0.0508554 11.3641
RightToes  -5.28216e-011 1.2921e-014 -6.02303e-014
Spine  -2.11779 -2.30207 -3.03158
Spine1  8.10673 -1.72834 -2.51851
HEad  -4.73587 -22.9898 11.9607
LeftShoulder1  1.50963 -2.87055 -18.1001
LeftArm  -2.73665 -12.916 -45.5987
LeftForeArm  31.323 2.31397 -12.2037
LeftHand  -0.0392583 4.93774 4.27321
RightShoulder  2.07504 3.00707 26.9032
RightArm  -16.0065 12.8858 59.0769
RightForeArm  73.1026 -5.82764 7.45837
RightHand  0.256803 -7.23942 -17.1306
LeftUpLeg  -15.6268 1.29825 6.37078
LeftLeg  19.8357 6.36714 3.28052
LeftFoot  -7.45338 0.163805 -3.50822
LeftToes  -9.4837e-011 -7.11147e-011 -1.07582e-011
682
root  -64.9223 39.5393 -29.469 -155.027 77.1782 -158.953
RightUpLeg  -14.7188 7.33521 -3.90906
RightLeg  18.1547 6.83462 2.29763
RightFoot  -12.2296 0.0036544 11.1846
RightToes  -5.28216e-011 1.2921e-014 -6.02303e-014
Spine  -2.31237 -2.29714 -3.13604
Spine1  7.86668 -1.74063 -2.48578
HEad  -4.39107 -22.4207 12.3533
LeftShoulder1  1.4892 -2.66592 -18.6349
LeftArm  -2.66459 -10.7221 -46.6081
LeftForeArm  31.4416 3.39988 -12.2536
LeftHand  -0.034785 5.06083 3.97734
RightShoulder  2.00727 2.72868 27.3051
RightArm  -17.0309 11.3502 57.733
RightForeArm  73.3236 -5.766 7.13115
RightHand  0.274943 -7.39797 -16.8651
LeftUpLeg  -14.6497 2.39257 5.89229
LeftLeg  19.0059 6.45666 3.38441
LeftFoot  -7.54832 0.166713 -3.66681
LeftToes  -9.4837e-011 -7.11147e-011 -1.07582e-011
683
root  -64.6638 39.5787 -29.3838 -154.49 78.5664 -158.425
RightUpLeg  -14.3984 5.24325 -5.36262
RightLeg  16.918 6.11358 1.88831
RightFoot  -11.8854 -0.0299913 10.703
RightToes  -5.28216e-011 1.2921e-014 -6.02303e-014
Spine  -2.73959 -2.34153 -3.00953
Spine1  8.023 -1.7423 -2.69553
HEad  -4.21691 -22.5801 13.0192
LeftShoulder1  1.44864 -2.41383 -19.0545
LeftArm  -2.82214 -8.14127 -47.4936
LeftForeArm  31.8595 4.11646 -12.2264
LeftHand  -0.0334801 5.08676 3.63495
RightShoulder  1.91478 2.37055 27.7817
RightArm  -18.2046 10.0864 56.5766
RightForeArm  73.8007 -5.67166 6.66728
RightHand  0.267329 -7.35027 -16.8244
LeftUpLeg  -13.4908 3.63792 5.64515
LeftLeg  18.0087 6.51852 3.38253
LeftFoot  -7.63586 0.17678 -4.04858
LeftToes  -9.4837e-011 -7.11147e-011 -1.07582e-011
684
root  -64.3921 39.6094 -29.2431 -153.767 80.103 -157.647
RightUpLeg  -14.0723 3.66525 -6.91767
RightLeg  15.5751 4.68898 1.27899
RightFoot  -11.6148 -0.0546042 10.2332
RightToes  -5.28216e-011 1.2921e-014 -6.02303e-014
Spine  -3.10556 -2.35504 -3.0952
Spine1  8.14183 -1.77804 -2.63292
HEad  -3.92886 -23.8242 13.5517
LeftShoulder1  1.41264 -2.13351 -19.7455
LeftArm  -2.86886 -5.38544 -48.0622
LeftForeArm  32.6054 4.62769 -12.2647
LeftHand  -0.0344365 5.01404 3.20214
RightShoulder  1.85961 2.16612 28.0365
RightArm  -19.7328 8.62329 55.5013
RightForeArm  74.0788 -5.54946 5.98495
RightHand  0.266033 -7.36157 -16.6678
LeftUpLeg  -12.2297 4.61392 5.49074
LeftLeg  17.0297 6.96956 3.45585
LeftFoot  -7.69165 0.190437 -4.52866
LeftToes  -9.4837e-011 -7.11147e-011 -1.07582e-011
685
root  -64.106 39.6264 -29.0413 -153.597 81.6089 -157.429
RightUpLeg  -13.7102 0.768478 -8.35606
RightLeg  14.1241 3.7992 0.800183
RightFoot  -10.832 -0.116533 9.60404
RightToes  -5.28216e-011 1.2921e-014 -6.02303e-014
Spine  -3.43444 -2.44841 -3.23011
Spine1  8.16076 -1.85979 -2.70942
HEad  -3.48166 -26.0415 14.0729
LeftShoulder1  1.37615 -1.88033 -20.3497
LeftArm  -2.87455 -2.40863 -48.4623
LeftForeArm  33.4719 4.89804 -12.3348
LeftHand  -0.0307066 5.18325 3.32786
RightShoulder  1.79187 1.92362 28.3188
RightArm  -21.0489 7.13659 54.4374
RightForeArm  73.8995 -5.46377 5.41587
RightHand  0.259218 -7.32836 -16.5534
LeftUpLeg  -10.9094 5.56896 5.39873
LeftLeg  15.9475 7.38337 3.34221
LeftFoot  -7.72052 0.20292 -4.95414
LeftToes  -9.4837e-011 -7.11147e-011 -1.07582e-011
